<mxfile host="app.diagrams.net" modified="2024-02-07T02:49:08.748Z" agent="Mozilla/5.0 (Macintosh; Intel Mac OS X 10_15_7) AppleWebKit/605.1.15 (KHTML, like Gecko) Version/17.2.1 Safari/605.1.15" version="23.1.1" etag="uYbop4FuDYZ22gkG-h7W" type="github">
  <diagram name="第 1 页" id="DcgjL6_5QTE2U9V7kGay">
    <mxGraphModel>
      <root>
        <mxCell id="0" />
        <mxCell id="1" parent="0" />
      </root>
    </mxGraphModel>
  </diagram>
</mxfile>
